<?xml version="1.0" standalone="no"?>
<svg viewBox="0 0 200 200" xmlns="http://www.w3.org/2000/svg">
  <path fill="#BAE6FF" d="M15.6,-26C18.1,-22.7,16.5,-14.8,26.4,-7.8C36.4,-0.7,57.8,5.3,59.2,9.8C60.6,14.3,41.8,17.2,32.6,28.9C23.4,40.6,23.7,61.2,16.8,68.4C9.8,75.6,-4.3,69.3,-10,57.1C-15.6,44.9,-12.7,26.7,-23.1,18.1C-33.4,9.5,-57.1,10.6,-63.9,5.3C-70.6,0.1,-60.4,-11.4,-53.5,-23.5C-46.5,-35.6,-42.8,-48.2,-34.4,-48.8C-26,-49.4,-13,-37.9,-3.2,-32.9C6.6,-27.9,13.1,-29.3,15.6,-26Z" transform="translate(100 100)" />
</svg>
